<svg width="61" height="61" viewBox="0 0 61 61" fill="none" xmlns="http://www.w3.org/2000/svg">
<path d="M57.7474 21.5185L39.3543 3.13707L40.6463 1.84581C41.8117 0.681148 43.2558 0.111476 44.9786 0.136794C46.7014 0.162113 48.1455 0.757105 49.3109 1.92177L59.1155 11.7201C60.2809 12.8848 60.8636 14.3153 60.8636 16.0117C60.8636 17.708 60.2809 19.1385 59.1155 20.3032L57.7474 21.5185ZM20.277 59.1169C19.1116 60.2815 17.6802 60.8639 15.9828 60.8639C14.2853 60.8639 12.8539 60.2815 11.6885 59.1169L1.88385 49.3185C0.718446 48.1539 0.135742 46.7233 0.135742 45.027C0.135742 43.3306 0.718446 41.9001 1.88385 40.7355L3.09993 39.5201L21.4931 57.9016L20.277 59.1169ZM31.2977 56.9901C30.6897 57.5978 29.9803 57.9016 29.1696 57.9016C28.3589 57.9016 27.6495 57.5978 27.0415 56.9901L4.01199 33.9753C3.40395 33.3677 3.09993 32.6588 3.09993 31.8486C3.09993 31.0384 3.40395 30.3294 4.01199 29.7218L8.34427 25.3163C8.95231 24.7087 9.67435 24.4048 10.5104 24.4048C11.3465 24.4048 12.0685 24.7087 12.6765 25.3163L17.4649 30.1016L30.0817 17.4928L25.2934 12.7076C24.6853 12.0999 24.3813 11.391 24.3813 10.5808C24.3813 9.77059 24.6853 9.06166 25.2934 8.45401L29.6256 4.04855C30.2337 3.44089 30.9557 3.13707 31.7918 3.13707C32.6278 3.13707 33.3499 3.44089 33.9579 4.04855L56.9874 27.0633C57.5954 27.671 57.8994 28.3925 57.8994 29.2281C57.8994 30.0636 57.5954 30.7852 56.9874 31.3928L52.5791 35.7223C51.9711 36.33 51.2617 36.6338 50.451 36.6338C49.6402 36.6338 48.9309 36.33 48.3228 35.7223L43.5345 30.9371L30.9177 43.5458L35.706 48.3311C36.3141 48.9387 36.6181 49.6603 36.6181 50.4958C36.6181 51.3314 36.3141 52.0529 35.706 52.6606L31.2977 56.9901Z" fill="#222222"/>
</svg>
