<svg width="20" height="20" viewBox="0 0 20 20" fill="none" xmlns="http://www.w3.org/2000/svg">
<path d="M2.91186 8.5413L5.55229 5.90088C6.09091 5.36227 6.27728 4.56642 6.05944 3.83652C5.8891 3.26577 5.69718 2.57964 5.56961 1.99292C5.45162 1.45027 4.97545 1 4.42012 1H2.91186C1.8012 1 0.889114 1.90384 1.01094 3.0078C1.93709 11.3996 8.6004 18.0629 16.9922 18.9891C18.0962 19.1109 19 18.1988 19 17.0881V15.5799C19 15.0246 18.5479 14.569 18.0015 14.4696C17.3988 14.36 16.7611 14.1804 16.2276 14.0103C15.4611 13.7659 14.6091 13.9377 14.0403 14.5065L11.4587 17.0881" stroke="#FDCF6F" stroke-width="1.5" stroke-linecap="round" stroke-linejoin="round"/>
<path d="M2.91186 8.5413L5.55229 5.90088C6.09091 5.36227 6.27728 4.56642 6.05944 3.83652C5.8891 3.26577 5.69718 2.57964 5.56961 1.99292C5.45162 1.45027 4.97545 1 4.42012 1H2.91186C1.8012 1 0.889114 1.90384 1.01094 3.0078C1.93709 11.3996 8.6004 18.0629 16.9922 18.9891C18.0962 19.1109 19 18.1988 19 17.0881V15.5799C19 15.0246 18.5479 14.569 18.0015 14.4696C17.3988 14.36 16.7611 14.1804 16.2276 14.0103C15.4611 13.7659 14.6091 13.9377 14.0403 14.5065L11.4587 17.0881" stroke="#FDCF6F" stroke-width="1.5" stroke-linecap="round" stroke-linejoin="round"/>
<path d="M2 1.5L3 1L4.5 1.5L5 3.5L5.5 5L4 7L2 7.5L1.5 5.5L2 1.5Z" fill="#FDCF6F" stroke="#FDCF6F"/>
<path d="M12.7784 15.7553L12.4265 16.7772L13.0901 18.1554L15.0587 18.3878L16.5507 18.6821L18.2699 16.9945L18.4971 15.0126L16.5285 14.7802L12.7784 15.7553Z" fill="#FDCF6F" stroke="#FDCF6F"/>
</svg>
