<svg width="60" height="61" viewBox="0 0 60 61" fill="none" xmlns="http://www.w3.org/2000/svg">
<circle cx="30" cy="30.6001" r="30" fill="#FDCF70"/>
<path d="M28.3585 46.5334V42.8386C26.8405 42.4949 25.5301 41.8361 24.4274 40.8623C23.3247 39.8885 22.5156 38.5137 22 36.7379L25.1793 35.449C25.6089 36.8238 26.2462 37.8692 27.0911 38.5853C27.936 39.3013 29.0459 39.6594 30.4207 39.6594C31.5951 39.6594 32.5904 39.3944 33.4067 38.8645C34.223 38.3347 34.6311 37.5112 34.6311 36.3942C34.6311 35.3917 34.3161 34.5969 33.6859 34.0097C33.0558 33.4226 31.5951 32.7566 29.3037 32.0119C26.8405 31.2386 25.1506 30.3149 24.2341 29.2408C23.3175 28.1668 22.8593 26.8564 22.8593 25.3097C22.8593 23.448 23.4607 22.0016 24.6637 20.9705C25.8667 19.9394 27.0983 19.3522 28.3585 19.209V15.6001H31.7956V19.209C33.2277 19.4381 34.4091 19.9608 35.34 20.7771C36.2709 21.5934 36.9511 22.5887 37.3807 23.7631L34.2015 25.1379C33.8578 24.2213 33.3709 23.5339 32.7407 23.0757C32.1106 22.6174 31.2514 22.3882 30.163 22.3882C28.9027 22.3882 27.9432 22.6675 27.2844 23.226C26.6257 23.7845 26.2963 24.4791 26.2963 25.3097C26.2963 26.2549 26.7259 26.9996 27.5852 27.5438C28.4444 28.088 29.9338 28.6608 32.0533 29.2623C34.0296 29.8352 35.5262 30.7445 36.543 31.9905C37.5598 33.2364 38.0681 34.6757 38.0681 36.3082C38.0681 38.3418 37.4667 39.8885 36.2637 40.9482C35.0607 42.008 33.5714 42.6668 31.7956 42.9245V46.5334H28.3585Z" fill="#222222"/>
</svg>
