<svg width="36" height="29" viewBox="0 0 36 29" fill="none" xmlns="http://www.w3.org/2000/svg">
<path d="M4.22794 28.562C3.27151 28.562 2.45274 28.2232 1.77165 27.5455C1.09055 26.8679 0.75 26.0533 0.75 25.1018V4.34057C0.75 3.38902 1.09055 2.57443 1.77165 1.8968C2.45274 1.21918 3.27151 0.880371 4.22794 0.880371H32.0515C33.0079 0.880371 33.8267 1.21918 34.5078 1.8968C35.1889 2.57443 35.5294 3.38902 35.5294 4.34057V25.1018C35.5294 26.0533 35.1889 26.8679 34.5078 27.5455C33.8267 28.2232 33.0079 28.562 32.0515 28.562H4.22794ZM18.1397 16.4513L32.0515 7.80077V4.34057L18.1397 12.9911L4.22794 4.34057V7.80077L18.1397 16.4513Z" fill="#FDCF70"/>
</svg>
