<svg width="81" height="52" viewBox="0 0 81 52" fill="none" xmlns="http://www.w3.org/2000/svg">
<path d="M25.7727 51.7217C18.5932 51.7217 12.5028 49.2476 7.5017 44.2994C2.50057 39.3511 0 33.3253 0 26.2217C0 19.1181 2.50057 13.0922 7.5017 8.144C12.5028 3.19579 18.5932 0.72168 25.7727 0.72168H55.2273C62.4068 0.72168 68.4972 3.19579 73.4983 8.144C78.4994 13.0922 81 19.1181 81 26.2217C81 33.3253 78.4994 39.3511 73.4983 44.2994C68.4972 49.2476 62.4068 51.7217 55.2273 51.7217H25.7727ZM28.5341 23.4895C28.5341 27.1931 29.792 30.4261 32.308 33.1886C34.8239 35.9511 37.5545 38.486 40.5 40.7931C43.4455 38.486 46.1761 35.9511 48.692 33.1886C51.208 30.4261 52.4659 27.1931 52.4659 23.4895C52.4659 20.211 51.3 17.4181 48.9682 15.111C46.6364 12.8038 43.8136 11.6503 40.5 11.6503C37.1864 11.6503 34.3636 12.8038 32.0318 15.111C29.7 17.4181 28.5341 20.211 28.5341 23.4895ZM40.5 26.2217C39.4568 26.2217 38.5824 25.8726 37.8767 25.1744C37.171 24.4761 36.8182 23.611 36.8182 22.5788C36.8182 21.5467 37.171 20.6815 37.8767 19.9833C38.5824 19.2851 39.4568 18.936 40.5 18.936C41.5432 18.936 42.4176 19.2851 43.1233 19.9833C43.829 20.6815 44.1818 21.5467 44.1818 22.5788C44.1818 23.611 43.829 24.4761 43.1233 25.1744C42.4176 25.8726 41.5432 26.2217 40.5 26.2217Z" fill="#FDCF70"/>
</svg>
