<svg width="20" height="24" viewBox="0 0 20 24" fill="none" xmlns="http://www.w3.org/2000/svg">
<path d="M9.98866 11.7534C10.6097 11.7534 11.1414 11.5323 11.5837 11.09C12.026 10.6477 12.2471 10.116 12.2471 9.49496C12.2471 8.87389 12.026 8.34221 11.5837 7.89994C11.1414 7.45766 10.6097 7.23652 9.98866 7.23652C9.36759 7.23652 8.83591 7.45766 8.39363 7.89994C7.95136 8.34221 7.73022 8.87389 7.73022 9.49496C7.73022 10.116 7.95136 10.6477 8.39363 11.09C8.83591 11.5323 9.36759 11.7534 9.98866 11.7534ZM9.98866 23.0456C6.95858 20.4672 4.69543 18.0723 3.19921 15.861C1.70299 13.6496 0.95488 11.6028 0.95488 9.72081C0.95488 6.89775 1.86296 4.64872 3.67913 2.9737C5.4953 1.29869 7.59847 0.461182 9.98866 0.461182C12.3788 0.461182 14.482 1.29869 16.2982 2.9737C18.1144 4.64872 19.0224 6.89775 19.0224 9.72081C19.0224 11.6028 18.2743 13.6496 16.7781 15.861C15.2819 18.0723 13.0187 20.4672 9.98866 23.0456Z" fill="#B97D00"/>
</svg>
