<svg width="60" height="61" viewBox="0 0 60 61" fill="none" xmlns="http://www.w3.org/2000/svg">
<circle cx="30" cy="30.6001" r="30" fill="#FDCF70"/>
<path d="M35.8002 44.6001C33.7944 44.6001 32.0846 43.8932 30.6708 42.4795C29.2571 41.0657 28.5502 39.3559 28.5502 37.3501C28.5502 35.3443 29.2571 33.6345 30.6708 32.2207C32.0846 30.807 33.7944 30.1001 35.8002 30.1001C37.806 30.1001 39.5158 30.807 40.9296 32.2207C42.3433 33.6345 43.0502 35.3443 43.0502 37.3501C43.0502 39.3559 42.3433 41.0657 40.9296 42.4795C39.5158 43.8932 37.806 44.6001 35.8002 44.6001ZM28.5502 44.6001C25.191 43.7543 22.4179 41.827 20.2308 38.8182C18.0437 35.8095 16.9502 32.4684 16.9502 28.7951V19.9501L28.5502 15.6001L40.1502 19.9501V28.1788C39.5219 27.8647 38.815 27.623 38.0296 27.4538C37.2442 27.2847 36.501 27.2001 35.8002 27.2001C32.9969 27.2001 30.6044 28.1909 28.6227 30.1726C26.641 32.1543 25.6502 34.5468 25.6502 37.3501C25.6502 38.8484 25.9342 40.2018 26.5021 41.4101C27.07 42.6184 27.7889 43.6697 28.6589 44.5638C28.6348 44.5638 28.6167 44.5699 28.6046 44.582C28.5925 44.5941 28.5744 44.6001 28.5502 44.6001ZM35.8002 37.3501C36.4044 37.3501 36.9179 37.1386 37.3408 36.7157C37.7637 36.2928 37.9752 35.7793 37.9752 35.1751C37.9752 34.5709 37.7637 34.0574 37.3408 33.6345C36.9179 33.2116 36.4044 33.0001 35.8002 33.0001C35.196 33.0001 34.6825 33.2116 34.2596 33.6345C33.8367 34.0574 33.6252 34.5709 33.6252 35.1751C33.6252 35.7793 33.8367 36.2928 34.2596 36.7157C34.6825 37.1386 35.196 37.3501 35.8002 37.3501ZM35.8002 41.7001C36.5494 41.7001 37.2381 41.5249 37.8664 41.1745C38.4948 40.8241 39.0023 40.3588 39.3889 39.7788C38.8573 39.4647 38.2894 39.223 37.6852 39.0538C37.081 38.8847 36.4527 38.8001 35.8002 38.8001C35.1477 38.8001 34.5194 38.8847 33.9152 39.0538C33.311 39.223 32.7431 39.4647 32.2114 39.7788C32.5981 40.3588 33.1056 40.8241 33.7339 41.1745C34.3623 41.5249 35.051 41.7001 35.8002 41.7001Z" fill="#222222"/>
</svg>
