<svg width="47" height="46" viewBox="0 0 47 46" fill="none" xmlns="http://www.w3.org/2000/svg">
<path d="M42.9222 46L26.8222 29.9C25.5444 30.9222 24.075 31.7315 22.4139 32.3278C20.7528 32.9241 18.9852 33.2222 17.1111 33.2222C12.4685 33.2222 8.53935 31.6144 5.32361 28.3986C2.10787 25.1829 0.5 21.2537 0.5 16.6111C0.5 11.9685 2.10787 8.03935 5.32361 4.82361C8.53935 1.60787 12.4685 0 17.1111 0C21.7537 0 25.6829 1.60787 28.8986 4.82361C32.1144 8.03935 33.7222 11.9685 33.7222 16.6111C33.7222 18.4852 33.4241 20.2528 32.8278 21.9139C32.2315 23.575 31.4222 25.0444 30.4 26.3222L46.5 42.4222L42.9222 46ZM17.1111 28.1111C20.3056 28.1111 23.0208 26.9931 25.2569 24.7569C27.4931 22.5208 28.6111 19.8056 28.6111 16.6111C28.6111 13.4167 27.4931 10.7014 25.2569 8.46528C23.0208 6.22917 20.3056 5.11111 17.1111 5.11111C13.9167 5.11111 11.2014 6.22917 8.96528 8.46528C6.72917 10.7014 5.61111 13.4167 5.61111 16.6111C5.61111 19.8056 6.72917 22.5208 8.96528 24.7569C11.2014 26.9931 13.9167 28.1111 17.1111 28.1111Z" fill="#B97D00"/>
</svg>
