<svg width="60" height="61" viewBox="0 0 60 61" fill="none" xmlns="http://www.w3.org/2000/svg">
<circle cx="30" cy="30.6001" r="30" fill="#FDCF70"/>
<path d="M30.16 46.5002C29.7067 46.5002 29.3267 46.3469 29.02 46.0402C28.7133 45.7335 28.56 45.3535 28.56 44.9002C28.56 44.7135 28.6 44.5202 28.68 44.3202C28.76 44.1202 28.88 43.9402 29.04 43.7802L36.44 36.3802L35.28 35.2202L27.92 42.6202C27.76 42.7802 27.5867 42.9002 27.4 42.9802C27.2133 43.0602 27.0133 43.1002 26.8 43.1002C26.3467 43.1002 25.9667 42.9469 25.66 42.6402C25.3533 42.3335 25.2 41.9535 25.2 41.5002C25.2 41.2335 25.24 41.0135 25.32 40.8402C25.4 40.6669 25.5067 40.5135 25.64 40.3802L33.04 32.9802L31.92 31.8602L24.52 39.2202C24.36 39.3802 24.1867 39.5002 24 39.5802C23.8133 39.6602 23.6 39.7002 23.36 39.7002C22.9333 39.7002 22.56 39.5402 22.24 39.2202C21.92 38.9002 21.76 38.5269 21.76 38.1002C21.76 37.8869 21.8 37.6869 21.88 37.5002C21.96 37.3135 22.08 37.1402 22.24 36.9802L29.64 29.5802L28.48 28.4602L21.12 35.8602C20.9867 35.9935 20.8267 36.1002 20.64 36.1802C20.4533 36.2602 20.2267 36.3002 19.96 36.3002C19.5067 36.3002 19.1267 36.1469 18.82 35.8402C18.5133 35.5335 18.36 35.1535 18.36 34.7002C18.36 34.4869 18.4 34.2869 18.48 34.1002C18.56 33.9135 18.68 33.7402 18.84 33.5802L27.76 24.6602L33.76 30.7002C34.0533 30.9935 34.4 31.2269 34.8 31.4002C35.2 31.5735 35.6 31.6602 36 31.6602C36.8533 31.6602 37.6 31.3602 38.24 30.7602C38.88 30.1602 39.2 29.3935 39.2 28.4602C39.2 28.0869 39.1333 27.7002 39 27.3002C38.8667 26.9002 38.6267 26.5269 38.28 26.1802L31.12 19.0202C31.5733 18.5935 32.08 18.2669 32.64 18.0402C33.2 17.8135 33.76 17.7002 34.32 17.7002C35.0133 17.7002 35.6533 17.8135 36.24 18.0402C36.8267 18.2669 37.36 18.6202 37.84 19.1002L44.6 25.9002C45.08 26.3802 45.4333 26.9135 45.66 27.5002C45.8867 28.0869 46 28.7669 46 29.5402C46 30.0735 45.88 30.6135 45.64 31.1602C45.4 31.7069 45.0533 32.2069 44.6 32.6602L31.28 46.0202C31.0667 46.2335 30.88 46.3669 30.72 46.4202C30.56 46.4735 30.3733 46.5002 30.16 46.5002ZM16.44 33.7002L15.4 32.6602C14.9467 32.2335 14.6 31.7269 14.36 31.1402C14.12 30.5535 14 29.9402 14 29.3002C14 28.6069 14.1333 27.9669 14.4 27.3802C14.6667 26.7935 15 26.3002 15.4 25.9002L22.16 19.1002C22.5867 18.6735 23.0933 18.3335 23.68 18.0802C24.2667 17.8269 24.84 17.7002 25.4 17.7002C26.12 17.7002 26.76 17.8002 27.32 18.0002C27.88 18.2002 28.4267 18.5669 28.96 19.1002L37.16 27.3002C37.32 27.4602 37.44 27.6335 37.52 27.8202C37.6 28.0069 37.64 28.2069 37.64 28.4202C37.64 28.8469 37.48 29.2202 37.16 29.5402C36.84 29.8602 36.4667 30.0202 36.04 30.0202C35.8 30.0202 35.6 29.9869 35.44 29.9202C35.28 29.8535 35.1067 29.7269 34.92 29.5402L27.72 22.4202L16.44 33.7002Z" fill="#222222"/>
</svg>
