<svg width="33" height="34" viewBox="0 0 33 34" fill="none" xmlns="http://www.w3.org/2000/svg">
<path d="M16.5603 0.541992C7.567 0.541992 0.25013 7.85886 0.25013 16.8521C0.25013 19.6603 0.975499 22.421 2.35122 24.8576L0.276446 32.262C0.208369 32.5052 0.273709 32.7654 0.449575 32.9462C0.58502 33.0859 0.769927 33.1623 0.959266 33.1623C1.016 33.1623 1.0736 33.155 1.12963 33.1415L8.85672 31.2274C11.216 32.4939 13.8726 33.1623 16.5603 33.1623C25.5535 33.1623 32.8704 25.8454 32.8704 16.8521C32.8704 7.85886 25.5535 0.541992 16.5603 0.541992ZM10.6337 9.05163C10.9131 9.05163 11.191 9.05552 11.4356 9.06686C11.6931 9.07963 12.0392 8.969 12.3789 9.776C12.7277 10.6043 13.5648 12.6388 13.6683 12.8466C13.7733 13.0537 13.8433 13.2951 13.7043 13.571C13.5653 13.8468 13.496 14.0203 13.286 14.2621C13.0761 14.5039 12.8459 14.8007 12.6572 14.9865C12.4473 15.1928 12.2291 15.4158 12.473 15.83C12.717 16.2441 13.5574 17.5979 14.8027 18.6942C16.4018 20.1026 17.7513 20.5398 18.1697 20.7468C18.5881 20.9539 18.8329 20.9188 19.0769 20.643C19.3208 20.3664 20.1236 19.4359 20.4023 19.0225C20.681 18.609 20.9598 18.6764 21.3442 18.8147C21.7285 18.9523 23.7872 19.9525 24.2056 20.1596C24.624 20.3666 24.904 20.4706 25.009 20.643C25.1139 20.8146 25.1141 21.6418 24.7652 22.6069C24.4163 23.5728 22.7425 24.4552 21.9383 24.5737C21.2164 24.6793 20.3026 24.7237 19.2999 24.4089C18.6921 24.2174 17.9126 23.9639 16.9134 23.5377C12.7132 21.7464 9.96966 17.5698 9.75976 17.2939C9.55056 17.0181 8.05063 15.0529 8.05063 13.0184C8.05063 10.9838 9.13164 9.98376 9.51599 9.56963C9.90034 9.15549 10.3543 9.05163 10.6337 9.05163Z" fill="#B97D00"/>
</svg>
