<svg width="411" height="411" viewBox="0 0 411 411" fill="none" xmlns="http://www.w3.org/2000/svg">
<circle cx="205.5" cy="205.5" r="203.5" fill="url(#paint0_linear_8_32)" stroke="#B97D00" stroke-width="4"/>
<path d="M217.933 64.0019L226.19 25.9473L237.202 28.3368L247.294 58.9016L247.64 58.9767L253.289 31.8272L261.419 33.5911L253.162 71.6457L242.899 69.4188L232.271 37.7112L231.925 37.6361L226.063 65.7658L217.933 64.0019ZM271.125 81.0798C268.446 79.6683 266.363 77.8823 264.878 75.7218C263.394 73.5614 262.619 71.1082 262.554 68.3621C262.542 65.5995 263.379 62.6175 265.066 59.4159C266.789 56.1447 268.801 53.7593 271.103 52.2598C273.439 50.7786 275.909 50.0569 278.512 50.0945C281.115 50.1321 283.739 50.8475 286.384 52.2408C289.064 53.6524 291.146 55.4383 292.631 57.5988C294.116 59.7592 294.873 62.2032 294.903 64.931C294.968 67.6771 294.148 70.6684 292.443 73.9047C290.702 77.2107 288.663 79.6043 286.327 81.0855C284.025 82.585 281.555 83.3068 278.917 83.2508C276.333 83.1784 273.735 82.4548 271.125 81.0798ZM274.304 75.5522C275.591 76.2305 276.835 76.4856 278.035 76.3175C279.253 76.1147 280.419 75.506 281.531 74.4915C282.644 73.477 283.667 72.0824 284.602 70.3076C285.61 68.3936 286.219 66.647 286.429 65.068C286.638 63.4889 286.456 62.1039 285.883 60.913C285.364 59.7055 284.425 58.7443 283.068 58.0294C281.815 57.3694 280.562 57.1317 279.309 57.3163C278.109 57.4844 276.935 58.0665 275.788 59.0626C274.676 60.0771 273.643 61.4891 272.69 63.2987C271.168 66.1871 270.561 68.6902 270.868 70.8081C271.175 72.9259 272.32 74.5073 274.304 75.5522ZM297.469 98.0892C294.784 95.9049 293.356 93.5773 293.186 91.1064C293.046 88.6603 294.193 85.9422 296.625 82.952L305.338 72.2422L302.271 69.7476L306.115 65.1165L307.396 66.159C308.869 67.1539 310.143 67.5821 311.219 67.4434C312.326 67.3296 313.486 66.6511 314.7 65.4078L316.547 63.792L320.346 66.8823L315.953 72.2829L321.857 77.0859L317.501 82.4408L311.596 77.6378L303.368 87.7526C302.45 88.8816 302.054 89.9288 302.181 90.8943C302.333 91.8293 302.882 92.6815 303.828 93.451C304.347 93.8729 304.9 94.2215 305.488 94.4966C306.13 94.766 306.765 94.9524 307.39 95.0558L302.513 101.051C301.374 100.581 300.386 100.082 299.549 99.5529C298.742 99.0487 298.049 98.5608 297.469 98.0892ZM305.312 119.329C305.068 119.021 304.842 118.673 304.635 118.285C304.422 117.952 304.2 117.576 303.968 117.158L309.263 112.06C310.27 113.521 311.221 114.373 312.117 114.617C313.037 114.892 314.175 114.492 315.532 113.417L338.934 94.8808L344.209 101.541L320.622 120.224C319.05 121.469 317.546 122.359 316.113 122.892C314.679 123.426 313.326 123.619 312.055 123.472C310.778 123.38 309.579 122.974 308.459 122.256C307.338 121.538 306.289 120.563 305.312 119.329ZM344.347 96.0127C343.296 94.6869 342.78 93.465 342.798 92.3471C342.816 91.2292 343.333 90.2673 344.351 89.4613C345.43 88.6066 346.516 88.2985 347.608 88.5372C348.725 88.8068 349.784 89.5737 350.785 90.8378C351.835 92.1636 352.351 93.3855 352.334 94.5034C352.34 95.6522 351.804 96.6539 350.725 97.5087C349.707 98.3146 348.64 98.5828 347.524 98.3133C346.431 98.0746 345.372 97.3077 344.347 96.0127ZM327.301 135.034C325.615 131.921 325.432 129.023 326.753 126.34C328.091 123.691 330.974 121.168 335.401 118.77L350.291 110.706L354.337 118.177L339.915 125.988C337.39 127.355 335.761 128.685 335.029 129.976C334.316 131.302 334.353 132.691 335.139 134.144C335.645 135.077 336.31 135.768 337.134 136.217C337.977 136.699 338.989 136.957 340.169 136.988C341.349 137.02 342.654 136.828 344.084 136.411C345.548 135.976 347.137 135.317 348.85 134.434L359.901 128.449L363.947 135.919L348.694 144.18L336.71 150.671L333.31 144.394L343.172 139.187L342.806 138.512C340.163 139.497 337.858 140.03 335.889 140.112C333.921 140.194 332.236 139.809 330.835 138.957C329.435 138.105 328.257 136.798 327.301 135.034ZM341.48 168.775C340.932 166.763 340.639 164.866 340.602 163.082C340.536 161.347 340.737 159.764 341.203 158.332C341.669 156.901 342.435 155.673 343.501 154.648C344.567 153.624 345.949 152.86 347.646 152.357L350.972 158.727C349.865 159.151 348.971 159.762 348.292 160.559C347.66 161.383 347.28 162.383 347.153 163.56C347.025 164.736 347.162 166.064 347.566 167.544C347.99 169.1 348.578 170.285 349.33 171.1C350.119 171.904 351.008 172.171 351.994 171.902C352.677 171.716 353.147 171.344 353.402 170.785C353.695 170.216 353.859 169.396 353.894 168.327C353.939 167.295 353.912 165.998 353.812 164.436C353.775 162.652 353.763 160.963 353.777 159.37C353.791 157.776 353.979 156.298 354.342 154.935C354.715 153.61 355.32 152.467 356.159 151.505C357.046 150.57 358.286 149.885 359.88 149.451C361.853 148.913 363.662 148.97 365.308 149.623C366.991 150.265 368.471 151.431 369.747 153.122C371.071 154.84 372.085 156.989 372.788 159.57C373.44 161.961 373.664 164.203 373.46 166.297C373.294 168.381 372.65 170.207 371.529 171.777C370.407 173.346 368.751 174.45 366.56 175.087L363.26 168.587C364.361 168.288 365.218 167.768 365.832 167.03C366.447 166.292 366.819 165.416 366.951 164.402C367.12 163.377 367.034 162.239 366.692 160.987C366.279 159.469 365.668 158.351 364.861 157.633C364.103 156.943 363.287 156.717 362.414 156.955C361.731 157.141 361.234 157.562 360.923 158.217C360.613 158.872 360.445 159.754 360.421 160.861C360.445 161.996 360.482 163.331 360.534 164.866C360.651 166.343 360.692 167.84 360.657 169.358C360.671 170.903 360.496 172.357 360.134 173.72C359.809 175.072 359.195 176.259 358.291 177.28C357.387 178.301 356.081 179.044 354.373 179.509C352.476 180.026 350.68 179.945 348.986 179.265C347.303 178.623 345.813 177.419 344.516 175.652C343.268 173.913 342.256 171.621 341.48 168.775ZM346.702 197.851C346.428 194.4 347.125 191.76 348.794 189.931C350.467 188.14 353.225 187.092 357.067 186.786L370.83 185.691L370.516 181.75L376.52 181.332L376.651 182.978C376.948 184.73 377.518 185.947 378.362 186.63C379.208 187.352 380.501 187.722 382.238 187.742L384.682 187.962L385.071 192.843L378.131 193.396L378.735 200.983L371.854 201.53L371.25 193.943L358.252 194.978C356.801 195.094 355.771 195.531 355.16 196.29C354.589 197.045 354.352 198.031 354.449 199.246C354.502 199.913 354.632 200.554 354.838 201.168C355.087 201.819 355.391 202.407 355.748 202.931L348.043 203.544C347.597 202.396 347.276 201.336 347.08 200.366C346.888 199.434 346.762 198.596 346.702 197.851ZM347.04 220.937L377.723 225.181L376.558 233.597L345.876 229.353L347.04 220.937ZM380.647 229.874C380.879 228.199 381.405 226.981 382.225 226.221C383.044 225.46 384.097 225.169 385.383 225.347C386.747 225.536 387.72 226.107 388.303 227.061C388.88 228.055 389.058 229.35 388.837 230.947C388.605 232.623 388.08 233.84 387.26 234.601C386.434 235.4 385.34 235.705 383.976 235.516C382.691 235.338 381.759 234.753 381.182 233.76C380.599 232.806 380.421 231.51 380.647 229.874ZM344.545 235.257L361.416 240.612L374.069 244.628L371.909 251.432L361.091 247.875L360.859 248.606C363.376 249.776 365.366 251.047 366.829 252.42C368.292 253.792 369.215 255.302 369.6 256.951C370.01 258.65 369.894 260.511 369.251 262.535C368.204 265.835 366.269 267.965 363.447 268.926C360.625 269.887 356.851 269.618 352.128 268.119L335.763 262.924L338.334 254.827L353.798 259.735C356.498 260.592 358.609 260.829 360.134 260.446C361.696 260.075 362.739 259.065 363.262 257.416C363.715 255.991 363.627 254.643 362.999 253.37C362.409 252.11 361.316 250.938 359.72 249.854C358.125 248.77 356.034 247.817 353.447 246.996L341.975 243.355L344.545 235.257ZM329.945 273.418L361.735 280.533L357.012 288.501L333.086 281.658L332.785 282.166L350.213 299.972L345.731 307.534L324.229 283.061L329.945 273.418ZM306.973 303.009C308.813 301.067 310.68 299.639 312.575 298.726C314.499 297.839 316.421 297.411 318.342 297.443C320.262 297.474 322.124 297.911 323.928 298.753C325.76 299.621 327.518 300.854 329.203 302.45C330.888 304.046 332.256 305.776 333.308 307.639C334.36 309.503 335.01 311.419 335.258 313.387C335.534 315.383 335.337 317.364 334.667 319.33C333.997 321.295 332.782 323.206 331.024 325.062C329.347 326.833 327.573 328.105 325.702 328.879C323.831 329.653 321.918 329.927 319.965 329.702C318.011 329.476 316.087 328.791 314.191 327.646C312.325 326.527 310.529 324.934 308.804 322.867L324.699 305.66L328.125 308.906L316.123 321.918L315.618 318.676C316.911 320.171 318.177 321.208 319.417 321.787C320.685 322.392 321.887 322.583 323.021 322.357C324.156 322.132 325.21 321.505 326.184 320.477C327.239 319.364 327.832 318.137 327.963 316.798C328.095 315.515 327.795 314.173 327.061 312.774C326.356 311.402 325.262 310.013 323.777 308.606C321.378 306.334 319.147 305.114 317.084 304.947C315.022 304.836 313.166 305.651 311.516 307.393C310.758 308.193 310.223 308.958 309.908 309.69C309.623 310.449 309.503 311.176 309.55 311.87C309.597 312.565 309.781 313.199 310.102 313.775C310.425 314.406 310.831 315.007 311.32 315.578L305.357 320.414C304.41 319.354 303.655 318.178 303.091 316.886C302.556 315.62 302.297 314.236 302.312 312.734C302.3 311.259 302.661 309.705 303.396 308.072C304.131 306.438 305.323 304.75 306.973 303.009ZM283.355 322.865C285.088 321.706 286.794 320.826 288.473 320.223C290.098 319.61 291.663 319.297 293.168 319.284C294.674 319.271 296.082 319.607 297.392 320.292C298.702 320.978 299.865 322.045 300.882 323.495L295.898 328.673C295.144 327.757 294.281 327.104 293.31 326.713C292.328 326.376 291.258 326.334 290.102 326.586C288.946 326.839 287.731 327.392 286.456 328.244C285.115 329.141 284.178 330.075 283.645 331.047C283.134 332.051 283.162 332.978 283.731 333.828C284.124 334.417 284.627 334.743 285.238 334.808C285.871 334.905 286.7 334.8 287.725 334.493C288.717 334.208 289.938 333.77 291.388 333.179C293.067 332.577 294.665 332.029 296.18 331.536C297.696 331.043 299.157 330.752 300.565 330.662C301.939 330.595 303.216 330.806 304.395 331.295C305.563 331.839 306.606 332.797 307.524 334.171C308.661 335.871 309.182 337.605 309.086 339.372C309.012 341.172 308.377 342.946 307.179 344.693C305.971 346.495 304.255 348.139 302.032 349.626C299.972 351.003 297.917 351.928 295.866 352.4C293.838 352.905 291.902 352.875 290.057 352.31C288.213 351.746 286.64 350.526 285.339 348.651L290.454 343.457C291.088 344.405 291.852 345.053 292.747 345.401C293.642 345.749 294.592 345.824 295.595 345.626C296.62 345.461 297.672 345.018 298.751 344.296C300.059 343.421 300.925 342.487 301.349 341.494C301.762 340.555 301.717 339.71 301.215 338.958C300.821 338.369 300.264 338.032 299.544 337.946C298.824 337.86 297.935 337.981 296.877 338.31C295.809 338.693 294.555 339.153 293.116 339.689C291.753 340.27 290.346 340.784 288.896 341.234C287.435 341.738 286.001 342.034 284.594 342.123C283.208 342.245 281.888 342.04 280.633 341.507C279.377 340.974 278.258 339.972 277.274 338.501C276.181 336.866 275.687 335.138 275.794 333.316C275.868 331.516 276.536 329.72 277.799 327.929C279.051 326.193 280.903 324.505 283.355 322.865ZM257.457 337.091C260.638 335.726 263.362 335.542 265.63 336.538C267.862 337.549 269.737 339.826 271.257 343.369L276.7 356.056L280.333 354.498L282.652 360.051L281.134 360.703C279.569 361.545 278.598 362.475 278.222 363.493C277.809 364.526 277.871 365.869 278.409 367.521L278.983 369.907L274.483 371.838L271.738 365.44L264.744 368.441L262.022 362.097L269.016 359.096L263.876 347.113C263.302 345.776 262.558 344.939 261.643 344.604C260.745 344.305 259.735 344.396 258.614 344.876C258 345.14 257.435 345.468 256.918 345.861C256.381 346.305 255.922 346.781 255.54 347.287L252.492 340.184C253.437 339.393 254.338 338.75 255.195 338.254C256.016 337.773 256.77 337.386 257.457 337.091ZM234.584 343.106C237.548 342.483 240.291 342.529 242.813 343.245C245.335 343.96 247.497 345.354 249.3 347.427C251.072 349.546 252.33 352.376 253.075 355.918C253.836 359.536 253.809 362.656 252.995 365.28C252.141 367.911 250.701 370.043 248.672 371.675C246.644 373.308 244.168 374.432 241.242 375.047C238.279 375.67 235.536 375.624 233.014 374.909C230.492 374.193 228.349 372.795 226.585 370.714C224.782 368.642 223.504 365.815 222.751 362.236C221.982 358.579 222.024 355.435 222.878 352.804C223.692 350.18 225.133 348.049 227.2 346.408C229.236 344.814 231.697 343.714 234.584 343.106ZM235.665 349.391C234.241 349.69 233.12 350.288 232.304 351.183C231.495 352.116 230.987 353.329 230.778 354.82C230.569 356.311 230.671 358.038 231.084 360.001C231.529 362.118 232.175 363.851 233.021 365.2C233.868 366.55 234.892 367.5 236.093 368.051C237.264 368.649 238.6 368.79 240.101 368.474C241.487 368.183 242.603 367.566 243.45 366.624C244.266 365.729 244.798 364.532 245.046 363.033C245.255 361.542 245.149 359.796 244.728 357.794C244.056 354.599 242.926 352.285 241.338 350.85C239.75 349.416 237.859 348.929 235.665 349.391ZM214.915 347.467L214.978 363.161L215.04 378.442L207.783 378.471L207.853 366.671L207.086 366.674C206.823 369.703 206.341 372.124 205.641 373.937C204.901 375.788 203.923 377.13 202.707 377.96C201.491 378.791 200.037 379.21 198.346 379.217C197.795 379.219 197.244 379.162 196.693 379.047C196.103 378.931 195.473 378.737 194.803 378.464L195.179 369.259C195.888 369.649 196.617 369.922 197.365 370.076C198.113 370.23 198.802 370.306 199.431 370.304C200.847 370.298 202.065 369.9 203.084 369.109C204.104 368.357 204.906 367.253 205.49 365.795C206.035 364.338 206.362 362.547 206.471 360.422L206.419 347.501L214.915 347.467ZM178.718 343.777C180.766 344.166 182.599 344.735 184.219 345.483C185.807 346.185 187.142 347.059 188.225 348.106C189.307 349.152 190.075 350.379 190.528 351.786C190.982 353.194 191.063 354.77 190.771 356.517L183.587 356.713C183.691 355.532 183.534 354.461 183.116 353.501C182.652 352.572 181.919 351.792 180.918 351.162C179.917 350.531 178.663 350.073 177.156 349.786C175.571 349.485 174.249 349.494 173.187 349.813C172.118 350.171 171.488 350.852 171.298 351.856C171.165 352.552 171.294 353.137 171.685 353.612C172.068 354.125 172.732 354.631 173.678 355.131C174.586 355.624 175.763 356.168 177.212 356.763C178.831 357.511 180.354 358.241 181.78 358.952C183.207 359.664 184.453 360.481 185.519 361.404C186.546 362.32 187.308 363.366 187.805 364.541C188.257 365.748 188.328 367.163 188.02 368.786C187.638 370.795 186.794 372.396 185.486 373.589C184.171 374.821 182.474 375.639 180.395 376.045C178.27 376.482 175.894 376.451 173.266 375.952C170.832 375.49 168.718 374.708 166.926 373.607C165.126 372.544 163.766 371.165 162.847 369.469C161.928 367.773 161.662 365.801 162.049 363.552L169.338 363.435C169.125 364.556 169.216 365.554 169.61 366.43C170.004 367.305 170.628 368.024 171.482 368.587C172.329 369.188 173.39 369.61 174.665 369.852C176.211 370.146 177.483 370.087 178.482 369.676C179.435 369.297 179.996 368.663 180.165 367.774C180.297 367.078 180.136 366.447 179.684 365.881C179.231 365.314 178.512 364.777 177.527 364.27C176.497 363.794 175.28 363.243 173.878 362.616C172.499 362.074 171.136 361.455 169.787 360.758C168.392 360.093 167.161 359.298 166.096 358.375C165.022 357.491 164.225 356.418 163.704 355.158C163.183 353.898 163.087 352.399 163.417 350.66C163.784 348.728 164.645 347.15 165.998 345.925C167.313 344.694 169.049 343.882 171.205 343.491C173.315 343.131 175.819 343.227 178.718 343.777ZM133.503 326.311C135.149 327.236 136.396 328.388 137.245 329.768C138.06 331.128 138.485 332.699 138.522 334.479C138.559 336.26 138.209 338.207 137.473 340.319L138.141 340.695L142.716 332.438L149.042 335.994L142.536 347.566L128.687 372.2L121.281 368.037L125.907 359.808C126.408 358.917 126.999 357.986 127.68 357.015C128.308 356.059 129.016 355.081 129.804 354.08C130.592 353.079 131.427 352.037 132.307 350.952L131.536 350.519C130.021 352.329 128.511 353.691 127.005 354.605C125.445 355.533 123.856 355.993 122.236 355.984C120.616 355.976 118.983 355.51 117.337 354.584C115.212 353.389 113.686 351.809 112.76 349.845C111.799 347.861 111.478 345.582 111.797 343.009C112.081 340.416 113.072 337.612 114.768 334.594C116.503 331.509 118.431 329.163 120.551 327.558C122.638 325.933 124.795 325.025 127.024 324.834C129.252 324.643 131.412 325.135 133.503 326.311ZM132.641 333.745C131.475 333.089 130.288 332.873 129.079 333.096C127.837 333.3 126.655 333.877 125.535 334.826C124.395 335.81 123.382 337.091 122.495 338.668C121.609 340.245 121.041 341.776 120.793 343.261C120.51 344.726 120.588 346.033 121.025 347.182C121.443 348.364 122.252 349.293 123.452 349.968C124.207 350.392 124.97 350.64 125.741 350.713C126.512 350.785 127.3 350.709 128.103 350.484C128.853 350.274 129.6 349.949 130.343 349.51C131.052 349.051 131.714 348.476 132.329 347.783C132.924 347.125 133.444 346.402 133.887 345.614L134.263 344.945C134.822 343.951 135.251 342.906 135.551 341.811C135.797 340.731 135.875 339.669 135.785 338.626C135.675 337.617 135.369 336.677 134.865 335.808C134.342 334.972 133.601 334.285 132.641 333.745ZM108.7 307.661C110.656 309.485 112.098 311.341 113.026 313.229C113.928 315.146 114.37 317.065 114.354 318.986C114.337 320.907 113.915 322.772 113.087 324.582C112.233 326.42 111.014 328.188 109.431 329.885C107.848 331.582 106.129 332.964 104.274 334.03C102.419 335.097 100.508 335.762 98.5409 336.025C96.5473 336.317 94.5651 336.135 92.5942 335.48C90.6234 334.825 88.7032 333.626 86.8336 331.882C85.0503 330.219 83.7644 328.454 82.9759 326.589C82.1875 324.724 81.8984 322.814 82.1087 320.859C82.319 318.903 82.9893 316.974 84.1198 315.07C85.2234 313.195 86.8025 311.386 88.857 309.645L106.186 325.406L102.967 328.858L89.8627 316.957L93.1003 316.427C91.6151 317.731 90.5879 319.005 90.019 320.25C89.4232 321.523 89.2424 322.726 89.4766 323.859C89.7108 324.991 90.3456 326.041 91.3811 327.007C92.5029 328.053 93.7337 328.636 95.0738 328.757C96.3582 328.879 97.6971 328.568 99.0905 327.824C100.457 327.108 101.838 326.003 103.233 324.507C105.487 322.091 106.689 319.851 106.84 317.786C106.935 315.723 106.105 313.874 104.351 312.237C103.545 311.486 102.776 310.956 102.041 310.648C101.28 310.368 100.553 310.254 99.8588 310.306C99.1648 310.358 98.5313 310.547 97.9582 310.873C97.3296 311.201 96.7316 311.612 96.1643 312.104L91.2828 306.18C92.335 305.225 93.5051 304.46 94.7931 303.887C96.0543 303.342 97.4364 303.071 98.9393 303.075C100.413 303.051 101.97 303.401 103.609 304.123C105.249 304.845 106.946 306.024 108.7 307.661ZM84.7352 278.003C85.5289 279.452 85.9977 280.922 86.1417 282.412C86.2512 283.922 85.9524 285.342 85.2453 286.671C84.5038 288.019 83.2706 289.165 81.5458 290.11C79.9589 290.979 78.5047 291.395 77.183 291.356C75.808 291.302 74.5077 290.893 73.282 290.13C72.0219 289.385 70.8225 288.383 69.6838 287.123C68.5107 285.882 67.3231 284.492 66.1212 282.952C65.0326 281.62 64.1754 280.588 63.5493 279.854C62.8888 279.14 62.3183 278.712 61.8378 278.572C61.3383 278.397 60.7954 278.47 60.2089 278.791C59.1396 279.377 58.485 280.229 58.2453 281.347C58.0056 282.465 58.2732 283.731 59.048 285.145C59.5393 286.042 60.1842 286.81 60.9827 287.449C61.7467 288.107 62.6515 288.531 63.6972 288.72C64.724 288.875 65.8789 288.691 67.1618 288.168L69.6 295.443C67.7462 296.234 65.9999 296.608 64.3612 296.564C62.7036 296.485 61.1913 296.058 59.8244 295.282C58.423 294.525 57.1624 293.533 56.0426 292.308C54.9229 291.083 53.9378 289.694 53.0874 288.142C51.6701 285.554 50.9642 283.16 50.9696 280.96C50.9406 278.778 51.5962 276.782 52.9365 274.971C54.2579 273.126 56.2812 271.457 59.0064 269.965L63.7669 267.357C64.9743 266.695 66.1895 266.007 67.4124 265.292C68.6009 264.597 69.7894 263.901 70.9779 263.205C72.1663 262.509 73.3454 261.796 74.515 261.065L78.1149 267.637C76.9954 268.295 75.8509 268.989 74.6813 269.72C73.4583 270.434 72.1914 271.151 70.8805 271.869L71.2207 272.49C72.8741 271.988 74.5674 271.845 76.3006 272.062C77.9993 272.297 79.5888 272.906 81.0691 273.889C82.5494 274.872 83.7715 276.244 84.7352 278.003ZM77.6062 278.006C77.2283 277.316 76.7202 276.675 76.0819 276.083C75.409 275.51 74.6344 275.037 73.7579 274.665C72.8469 274.312 71.8546 274.138 70.781 274.143C69.6886 274.114 68.5353 274.342 67.3214 274.828L64.6824 276.273L63.9737 274.98C64.6679 275.183 65.3608 275.588 66.0525 276.196C66.7442 276.803 67.4047 277.518 68.034 278.339C68.6444 279.126 69.2721 279.903 69.917 280.671C70.5619 281.439 71.2208 282.11 71.8936 282.683C72.5664 283.256 73.2671 283.635 73.9957 283.819C74.7244 284.003 75.5199 283.858 76.3823 283.386C77.3827 282.838 77.9871 282.058 78.1956 281.047C78.3696 280.055 78.1732 279.041 77.6062 278.006ZM77.7118 242.496L51.433 247.035L38.1192 249.335L36.8739 242.125L45.9637 240.675L45.9013 239.967C43.5796 239.929 41.6053 239.592 39.9785 238.955C38.3516 238.318 37.0722 237.381 36.1402 236.145C35.1695 234.916 34.5234 233.371 34.2021 231.51C33.7669 228.991 34.0348 226.729 35.0059 224.725C35.9315 222.689 37.5122 220.979 39.7479 219.595C41.9449 218.218 44.7681 217.231 48.2177 216.636C51.5898 216.053 54.561 216.039 57.1315 216.593C59.7019 217.147 61.7807 218.204 63.3677 219.766C64.9093 221.296 65.891 223.282 66.3128 225.724C66.6341 227.585 66.5244 229.26 65.9835 230.751C65.4427 232.241 64.5128 233.559 63.1939 234.705C61.8751 235.851 60.1866 236.821 58.1284 237.616L58.269 238.43C59.3917 237.996 60.5403 237.598 61.7151 237.236C62.8832 236.834 64.0225 236.498 65.1331 236.226C66.1983 235.922 67.2348 235.684 68.2425 235.509L76.2657 234.124L77.7118 242.496ZM59.9645 229.874C59.7302 228.518 59.1485 227.461 58.2193 226.703C57.2447 225.913 56.0389 225.403 54.602 225.172C53.1584 224.903 51.5645 224.919 49.8203 225.22C48.0374 225.528 46.5111 226.051 45.2416 226.789C43.9333 227.534 42.9719 228.439 42.3574 229.503C41.7429 230.567 41.5494 231.758 41.7771 233.076C41.9645 234.161 42.3645 235.09 42.9769 235.862C43.5826 236.596 44.346 237.202 45.267 237.682C46.1814 238.123 47.208 238.404 48.3468 238.527C49.4402 238.618 50.5683 238.562 51.731 238.362L52.4868 238.231C53.3783 238.077 54.2337 237.829 55.0529 237.488C55.8721 237.147 56.6165 236.719 57.2859 236.205C57.9487 235.651 58.5046 235.056 58.9535 234.42C59.3957 233.745 59.7116 233.031 59.9011 232.28C60.0907 231.529 60.1118 230.727 59.9645 229.874ZM64.7042 201.71C64.5946 203.359 64.1998 204.85 63.5198 206.185C62.8006 207.517 61.7856 208.553 60.4749 209.294C59.125 210.032 57.4689 210.336 55.5065 210.205C53.7012 210.085 52.2516 209.654 51.1578 208.911C50.0274 208.126 49.1507 207.082 48.5277 205.78C47.8655 204.474 47.3929 202.984 47.11 201.31C46.7879 199.633 46.5337 197.822 46.3476 195.878C46.1458 194.17 45.9781 192.838 45.8444 191.883C45.6716 190.925 45.4203 190.258 45.0905 189.882C44.7634 189.466 44.2662 189.235 43.599 189.191C42.3824 189.11 41.3725 189.477 40.5694 190.291C39.7664 191.104 39.3113 192.316 39.2044 193.925C39.1366 194.945 39.2676 195.94 39.5974 196.908C39.888 197.873 40.4233 198.717 41.2031 199.439C41.9855 200.121 43.0584 200.587 44.4216 200.835L42.5667 208.281C40.5781 207.951 38.9048 207.328 37.5467 206.41C36.1912 205.452 35.1457 204.279 34.4103 202.89C33.6355 201.498 33.1054 199.985 32.8199 198.349C32.5344 196.714 32.4503 195.014 32.5677 193.247C32.7634 190.304 33.4549 187.906 34.6424 186.053C35.7907 184.198 37.4165 182.867 39.52 182.061C41.626 181.215 44.2293 180.896 47.3298 181.102L52.7458 181.462C54.1194 181.553 55.514 181.626 56.9295 181.681C58.3057 181.733 59.682 181.785 61.0582 181.837C62.4345 181.889 63.812 181.921 65.1909 181.934L64.6939 189.411C63.3962 189.364 62.0579 189.334 60.679 189.321C59.2635 189.267 57.8101 189.19 56.3187 189.09L56.2718 189.797C57.9359 190.262 59.4405 191.052 60.7855 192.167C62.0913 193.278 63.1042 194.646 63.824 196.271C64.5438 197.896 64.8372 199.709 64.7042 201.71ZM58.6909 197.881C58.7431 197.096 58.6592 196.283 58.4393 195.44C58.1801 194.595 57.7809 193.78 57.2418 192.995C56.6634 192.208 55.9202 191.528 55.0122 190.955C54.1068 190.343 53.0117 189.915 51.727 189.672L48.7246 189.473L48.8225 188.001C49.2988 188.545 49.6652 189.259 49.9218 190.144C50.1784 191.028 50.3512 191.985 50.4404 193.016C50.5322 194.008 50.6436 195.001 50.7746 195.995C50.9056 196.989 51.1007 197.909 51.3599 198.754C51.6191 199.599 52.0064 200.295 52.522 200.842C53.0375 201.388 53.7859 201.694 54.7671 201.759C55.9052 201.835 56.834 201.503 57.5533 200.762C58.2335 200.019 58.6127 199.059 58.6909 197.881ZM66.1405 176.771L51.0102 172.603L36.2781 168.544L38.2057 161.547L49.5505 164.795L49.7542 164.056C46.9075 162.986 44.706 161.87 43.1497 160.706C41.5659 159.495 40.5378 158.192 40.0654 156.797C39.5929 155.402 39.5813 153.889 40.0306 152.258C40.1769 151.728 40.38 151.212 40.64 150.713C40.9105 150.175 41.2673 149.621 41.7103 149.049L50.474 151.892C49.9067 152.47 49.448 153.099 49.0978 153.777C48.7476 154.456 48.489 155.099 48.3218 155.706C47.9457 157.071 48.001 158.351 48.4878 159.546C48.9366 160.73 49.7842 161.8 51.0306 162.755C52.2874 163.673 53.9239 164.47 55.9403 165.148L68.3972 168.58L66.1405 176.771ZM78.7863 142.684C77.3277 145.823 75.4216 147.778 73.0681 148.55C70.7311 149.286 67.8147 148.841 64.319 147.217L51.7986 141.399L50.1329 144.984L44.7001 142.395L45.3963 140.897C45.9995 139.225 46.1018 137.885 45.7033 136.876C45.3214 135.831 44.3788 134.872 42.8756 134L40.8559 132.606L42.9195 128.165L49.2332 131.099L52.4404 124.197L58.7005 127.106L55.4933 134.008L67.3181 139.502C68.638 140.116 69.7502 140.242 70.655 139.882C71.5241 139.505 72.2155 138.764 72.7293 137.658C73.0111 137.051 73.2132 136.43 73.3357 135.793C73.4392 135.103 73.4642 134.443 73.4109 133.811L80.4202 137.068C80.2439 138.287 80.0022 139.367 79.6948 140.309C79.404 141.215 79.1012 142.007 78.7863 142.684ZM83.0499 133.243L68.7943 122.752L58.1026 114.883L62.3341 109.134L71.4353 115.978L71.8899 115.36C69.8822 113.443 68.4062 111.6 67.4619 109.831C66.5175 108.061 66.1282 106.334 66.2939 104.649C66.4512 102.909 67.1593 101.184 68.4183 99.4729C70.4699 96.6851 72.9865 95.2896 75.9681 95.2862C78.9497 95.2828 82.4362 96.7498 86.4278 99.6874L100.256 109.864L95.2199 116.707L82.1522 107.09C79.8713 105.411 77.9476 104.508 76.3809 104.381C74.7825 104.23 73.4704 104.851 72.4446 106.245C71.5587 107.449 71.2086 108.754 71.3944 110.161C71.5485 111.544 72.2069 113.005 73.3694 114.544C74.5319 116.084 76.2061 117.658 78.3919 119.266L88.0857 126.401L83.0499 133.243ZM115.656 97.1721C113.612 98.8965 111.597 100.107 109.612 100.804C107.601 101.471 105.644 101.681 103.738 101.436C101.833 101.19 100.032 100.549 98.3332 99.5112C96.6095 98.4437 94.9996 97.023 93.5033 95.249C92.0071 93.4751 90.8402 91.6035 90.0025 89.6343C89.1649 87.6651 88.7326 85.6885 88.7057 83.7044C88.6534 81.6902 89.0699 79.7437 89.9552 77.865C90.8405 75.9863 92.2603 74.2227 94.2146 72.5743C96.0787 71.002 97.9836 69.9356 99.9293 69.3751C101.875 68.8146 103.806 68.7552 105.722 69.1971C107.639 69.639 109.475 70.5346 111.23 71.8839C112.961 73.2032 114.568 74.9865 116.052 77.2339L98.3372 92.5612L95.294 88.9532L108.672 77.3609L108.812 80.6386C107.694 79.0085 106.552 77.8368 105.384 77.1236C104.191 76.3803 103.018 76.0574 101.866 76.1549C100.713 76.2524 99.5955 76.7576 98.5131 77.6706C97.3405 78.6596 96.6146 79.8122 96.3353 81.1283C96.0608 82.389 96.2099 83.7554 96.7828 85.2276C97.3302 86.6698 98.2633 88.1726 99.582 89.736C101.712 92.2616 103.793 93.7223 105.825 94.1182C107.862 94.4586 109.797 93.8553 111.631 92.3084C112.473 91.5983 113.091 90.8971 113.485 90.2048C113.853 89.4824 114.053 88.7737 114.084 88.0785C114.115 87.3833 114.003 86.7318 113.748 86.1239C113.497 85.4606 113.161 84.818 112.739 84.196L119.203 80.0556C120.026 81.2141 120.646 82.4669 121.061 83.8141C121.452 85.1313 121.556 86.5358 121.374 88.0276C121.221 89.494 120.689 90.998 119.776 92.5395C118.864 94.0809 117.491 95.6251 115.656 97.1721ZM129.417 85.2633L121.871 71.5025L114.524 58.1038L120.887 54.6145L126.457 65.0177L127.13 64.6489C125.915 61.8609 125.183 59.5035 124.934 57.5766C124.7 55.5963 124.919 53.9509 125.591 52.6404C126.263 51.3298 127.341 50.268 128.824 49.4547C129.307 49.19 129.818 48.9769 130.357 48.8156C130.931 48.6354 131.578 48.5052 132.297 48.4252L136.36 56.694C135.55 56.6895 134.78 56.798 134.049 57.0194C133.318 57.2407 132.676 57.5027 132.125 57.8053C130.883 58.4862 130.003 59.4173 129.484 60.5988C128.947 61.7458 128.77 63.0992 128.952 64.6589C129.169 66.1998 129.736 67.9297 130.654 69.8488L136.867 81.1782L129.417 85.2633ZM177.035 75.143L168.152 28.0659L175.283 26.7202L184.166 73.7974L177.035 75.143Z" fill="#B97D00"/>
<circle opacity="0.9" cx="206" cy="205" r="104" fill="url(#paint1_linear_8_32)"/>
<defs>
<linearGradient id="paint0_linear_8_32" x1="205.5" y1="0" x2="205.5" y2="411" gradientUnits="userSpaceOnUse">
<stop stop-color="#FDCF70"/>
<stop offset="1" stop-color="#FFDC94"/>
</linearGradient>
<linearGradient id="paint1_linear_8_32" x1="142.918" y1="111.23" x2="264.82" y2="299.197" gradientUnits="userSpaceOnUse">
<stop stop-color="#B97D00"/>
<stop offset="1" stop-color="#F8B21F"/>
</linearGradient>
</defs>
</svg>
