<svg width="411" height="411" viewBox="0 0 411 411" fill="none" xmlns="http://www.w3.org/2000/svg">
<circle cx="205.5" cy="205.5" r="203.5" fill="url(#paint0_linear_8_32)" stroke="#B97D00" stroke-width="4"/>
<path d="M222.639 65.1073L222.693 32.863L229.989 34.523L228.865 60.5125L229.376 60.6288L240.444 36.9019L248.948 38.8367L248.66 65.0165L249.218 65.1434L259.449 41.2262L266.373 42.8015L252.378 71.874L243.038 69.7488L243.512 43.6113L243.093 43.5161L232.211 67.2853L222.639 65.1073ZM266.594 78.1353C265.356 77.4865 264.384 76.6721 263.678 75.6924C262.986 74.6845 262.617 73.5761 262.569 72.3673C262.521 71.1584 262.858 69.8646 263.581 68.4857C264.215 67.2756 264.971 66.3805 265.849 65.8004C266.755 65.235 267.791 64.935 268.956 64.9003C270.122 64.8657 271.455 65.026 272.955 65.3814C274.454 65.7368 276.115 66.2303 277.936 66.8618C278.91 67.193 279.708 67.4498 280.33 67.6322C280.995 67.8011 281.541 67.8186 281.97 67.6847C282.414 67.5226 282.783 67.1602 283.078 66.5973C283.491 65.8094 283.564 64.9866 283.296 64.1288C283.028 63.2711 282.289 62.5251 281.079 61.891C280.263 61.4634 279.429 61.2059 278.578 61.1187C277.755 61.0462 276.943 61.1586 276.142 61.456C275.368 61.7681 274.641 62.3014 273.958 63.0558L269.46 58.6003C270.402 57.6235 271.404 56.8752 272.466 56.3554C273.555 55.8503 274.698 55.5524 275.893 55.4614C277.104 55.3424 278.359 55.4444 279.661 55.7676C280.962 56.0908 282.288 56.6063 283.639 57.3142C285.805 58.4497 287.38 59.7231 288.362 61.1344C289.387 62.5324 289.854 64.14 289.762 65.9572C289.686 67.7463 289.05 69.7806 287.856 72.06L285.865 75.859C285.349 76.8439 284.839 77.8503 284.336 78.8781C283.862 79.9207 283.38 80.9773 282.891 82.048C282.444 83.1053 281.998 84.1626 281.551 85.2199L276.19 82.4107C276.446 81.6482 276.754 80.7872 277.113 79.8277C277.516 78.8548 277.932 77.8893 278.362 76.9312L277.603 76.533C276.648 77.3959 275.577 78.0718 274.388 78.5608C273.199 79.0497 271.93 79.2814 270.58 79.2557C269.274 79.2166 267.945 78.8431 266.594 78.1353ZM271.47 75.0946C272.004 75.3748 272.591 75.5565 273.228 75.6397C273.894 75.7377 274.569 75.7505 275.253 75.6783C275.979 75.5926 276.693 75.3931 277.396 75.0796C278.126 74.7808 278.809 74.3675 279.444 73.8396L281.218 70.2496L282.078 70.9694C281.38 71.0698 280.634 71.0556 279.841 70.9268C279.062 70.7699 278.278 70.556 277.487 70.2852C276.725 70.0291 275.955 69.787 275.177 69.5591C274.4 69.3311 273.671 69.1822 272.99 69.1124C272.338 69.0574 271.739 69.1384 271.195 69.3554C270.694 69.559 270.266 69.9985 269.912 70.6739C269.455 71.5462 269.375 72.3832 269.673 73.1846C269.97 73.9861 270.569 74.6228 271.47 75.0946ZM286.012 88.2727L295.605 76.5408L301.85 68.904L306.203 72.4635L301.43 78.2256L302.168 78.8289C303.634 77.6884 305.044 76.8922 306.399 76.4402C307.753 75.9882 309.064 75.8906 310.332 76.1472C311.624 76.424 312.885 77.0652 314.115 78.0707C316.353 79.9008 317.406 82.0755 317.275 84.5948C317.169 87.1342 315.738 90.0886 312.983 93.4582L304.717 103.567L299.368 99.1928L307.151 89.6744C308.84 87.6084 309.759 85.8567 309.908 84.4193C310.102 82.9775 309.621 81.7839 308.465 80.8387C307.482 80.0343 306.406 79.668 305.24 79.7399C304.073 79.8118 302.905 80.2112 301.736 80.9381C300.612 81.6604 299.535 82.6265 298.505 83.8361L291.325 92.6166L286.012 88.2727ZM314.454 114.991C312.622 112.878 311.821 110.839 312.051 108.874C312.326 106.911 313.688 104.869 316.136 102.746L324.381 95.5964L322.008 92.86L326.139 89.4041L327.794 91.3124C328.439 92.0565 329.026 92.5149 329.554 92.6876C330.083 92.8604 330.666 92.733 331.304 92.3055L334.411 90.432L336.971 93.3845L332.758 97.0372L336.91 101.826L332.698 105.479L328.545 100.69L320.66 107.527C319.796 108.276 319.349 109.022 319.319 109.763C319.289 110.504 319.638 111.294 320.366 112.134C320.762 112.591 321.184 112.981 321.634 113.306C322.105 113.655 322.583 113.891 323.07 114.016L318.245 118.2C317.36 117.664 316.611 117.115 315.998 116.553C315.385 115.991 314.87 115.471 314.454 114.991ZM330.955 139.674C329.601 137.228 329.241 135.067 329.874 133.192C330.55 131.329 332.306 129.614 335.142 128.045L344.691 122.763L342.938 119.593L347.696 117.07L348.919 119.28C349.396 120.142 349.874 120.712 350.355 120.991C350.836 121.269 351.433 121.266 352.147 120.98L355.574 119.792L357.466 123.212L352.587 125.911L355.655 131.457L350.776 134.156L347.708 128.609L338.575 133.661C337.574 134.215 336.982 134.851 336.799 135.57C336.616 136.288 336.793 137.134 337.331 138.107C337.623 138.635 337.956 139.105 338.329 139.516C338.717 139.955 339.136 140.286 339.586 140.509L333.998 143.6C333.243 142.892 332.624 142.2 332.141 141.523C331.658 140.846 331.262 140.23 330.955 139.674ZM338.669 158.805C337.839 156.437 337.573 154.19 337.872 152.065C338.201 149.93 339.101 148.032 340.572 146.372C342.074 144.701 344.204 143.382 346.962 142.415C349.721 141.448 352.193 141.154 354.379 141.532C356.576 141.94 358.439 142.886 359.969 144.37C361.54 145.873 362.73 147.779 363.539 150.087C364.369 152.456 364.635 154.703 364.336 156.827C364.048 158.982 363.153 160.895 361.651 162.566C360.19 164.256 358.081 165.585 355.322 166.552C352.534 167.529 350.021 167.804 347.784 167.376C345.587 166.968 343.719 166.007 342.178 164.494C340.648 163.01 339.478 161.114 338.669 158.805ZM343.56 157.343C343.97 158.513 344.581 159.392 345.394 159.983C346.218 160.603 347.237 160.919 348.453 160.93C349.71 160.961 351.117 160.703 352.677 160.157C354.326 159.579 355.641 158.865 356.623 158.016C357.645 157.187 358.308 156.247 358.614 155.197C358.949 154.137 358.891 152.962 358.439 151.673C358.05 150.564 357.444 149.699 356.62 149.079C355.827 148.448 354.802 148.117 353.546 148.086C352.319 148.045 350.911 148.303 349.322 148.86C346.774 149.753 345.019 150.94 344.057 152.422C343.095 153.904 342.929 155.544 343.56 157.343ZM346.605 186.498L377.874 183.105L378.63 190.069L347.361 193.462L346.605 186.498ZM347.602 200.056L362.743 200.695L372.599 201.112L372.362 206.73L364.889 206.367L364.849 207.319C366.64 207.808 368.123 208.459 369.297 209.272C370.471 210.084 371.336 211.075 371.891 212.243C372.444 213.443 372.687 214.837 372.62 216.424C372.498 219.312 371.39 221.46 369.296 222.866C367.2 224.303 363.977 224.931 359.629 224.747L346.583 224.196L346.874 217.292L359.159 217.811C361.825 217.923 363.778 217.608 365.018 216.866C366.288 216.156 366.954 215.056 367.017 213.564C367.071 212.294 366.719 211.214 365.962 210.323C365.204 209.433 364.184 208.738 362.902 208.238C361.649 207.772 360.23 207.49 358.645 207.391L347.313 206.912L347.602 200.056ZM344.401 234.814L370.636 232.62L368.843 239.982L348.608 240.498L348.427 241.239L366.159 251.002L364.434 258.086L342.156 244.028L344.401 234.814ZM333.381 265.297C334.246 263.421 335.278 261.868 336.476 260.636C337.66 259.433 338.976 258.553 340.423 257.996C341.869 257.439 343.44 257.219 345.136 257.336C346.818 257.483 348.567 257.975 350.385 258.813C352.173 259.638 353.705 260.642 354.979 261.825C356.268 263.049 357.235 264.405 357.878 265.892C358.551 267.392 358.864 268.988 358.818 270.681C358.771 272.374 358.336 274.115 357.51 275.904C356.712 277.635 355.711 279.045 354.509 280.135C353.335 281.238 351.98 281.977 350.442 282.352C348.891 282.756 347.2 282.781 345.369 282.426C343.554 282.113 341.62 281.414 339.568 280.327L347.62 262.418L351.038 263.996L344.6 278.292L343.887 275.287C345.323 276.194 346.624 276.672 347.792 276.721C348.959 276.769 349.953 276.511 350.774 275.945C351.581 275.408 352.198 274.677 352.624 273.754C353.13 272.658 353.287 271.558 353.096 270.456C352.905 269.353 352.353 268.311 351.441 267.331C350.558 266.363 349.337 265.52 347.78 264.802C345.328 263.67 343.278 263.372 341.632 263.907C339.972 264.471 338.736 265.633 337.925 267.393C337.552 268.2 337.34 268.925 337.289 269.566C337.254 270.25 337.329 270.844 337.516 271.35C337.689 271.885 337.945 272.353 338.285 272.755C338.611 273.185 338.957 273.572 339.324 273.916L335.66 278.786C334.712 278.034 333.925 277.199 333.3 276.28C332.689 275.404 332.26 274.401 332.011 273.272C331.791 272.156 331.795 270.933 332.024 269.604C332.21 268.29 332.662 266.854 333.381 265.297ZM320.28 287.824C321.26 286.455 322.277 285.307 323.33 284.381C324.384 283.455 325.443 282.767 326.507 282.318C327.571 281.868 328.614 281.639 329.637 281.628C330.686 281.637 331.692 281.869 332.656 282.324L331.349 287.835C330.706 287.531 329.973 287.436 329.15 287.55C328.326 287.664 327.482 287.997 326.617 288.55C325.759 289.148 324.933 290.002 324.138 291.113C323.287 292.301 322.799 293.338 322.672 294.225C322.572 295.129 322.844 295.813 323.49 296.275C323.981 296.627 324.498 296.723 325.041 296.565C325.584 296.407 326.209 296.053 326.915 295.503C327.621 294.954 328.415 294.253 329.299 293.4C330.216 292.611 331.164 291.805 332.143 290.982C333.104 290.185 334.122 289.527 335.198 289.008C336.254 288.514 337.352 288.264 338.489 288.257C339.634 288.295 340.801 288.74 341.989 289.59C343.229 290.478 344.074 291.591 344.523 292.928C344.972 294.265 344.993 295.765 344.585 297.426C344.203 299.106 343.346 300.876 342.015 302.737C340.813 304.416 339.526 305.722 338.155 306.655C336.81 307.606 335.424 308.178 333.998 308.368C332.58 308.603 331.188 308.447 329.822 307.899L331.556 302.283C332.25 302.623 332.977 302.753 333.738 302.673C334.481 302.618 335.208 302.338 335.922 301.833C336.617 301.354 337.278 300.675 337.907 299.796C338.702 298.685 339.141 297.691 339.223 296.812C339.287 295.959 339.021 295.319 338.427 294.894C337.936 294.543 337.397 294.45 336.81 294.615C336.204 294.807 335.539 295.19 334.814 295.766C334.116 296.36 333.312 297.074 332.402 297.907C331.456 298.793 330.489 299.625 329.502 300.403C328.541 301.2 327.564 301.828 326.57 302.289C325.558 302.776 324.523 302.993 323.467 302.94C322.411 302.887 321.314 302.454 320.178 301.64C318.834 300.679 317.931 299.485 317.467 298.059C317.029 296.651 317.041 295.078 317.505 293.339C317.968 291.6 318.893 289.761 320.28 287.824ZM304.269 307.02C306.233 305.029 308.203 304.072 310.181 304.149C312.158 304.27 314.301 305.468 316.608 307.744L324.377 315.408L326.921 312.829L330.688 316.679L328.914 318.477C328.222 319.178 327.811 319.799 327.68 320.339C327.549 320.879 327.721 321.451 328.197 322.054L330.306 325.005L327.562 327.787L323.593 323.872L319.142 328.384L315.172 324.468L319.623 319.956L312.193 312.627C311.379 311.824 310.601 311.436 309.86 311.463C309.119 311.491 308.358 311.9 307.577 312.692C307.153 313.122 306.797 313.574 306.508 314.047C306.197 314.544 305.998 315.039 305.911 315.534L301.365 311.05C301.831 310.125 302.319 309.336 302.832 308.681C303.344 308.026 303.823 307.472 304.269 307.02ZM285.594 322.362L303.13 341.252L296.876 344.714L284.305 329.285L283.513 329.723L289.329 348.891L282.116 352.883L268.837 337.846L268.044 338.285L274.527 357.083L268.398 360.476L261.744 335.563L270 330.993L282.835 346.112L283.543 345.72L277.38 326.908L285.594 322.362ZM252.78 339.839L260.505 363.636L253.978 365.755L246.253 341.958L252.78 339.839ZM258.359 368.291C259.628 367.879 260.693 367.817 261.555 368.105C262.396 368.433 262.984 369.111 263.317 370.139C263.661 371.196 263.588 372.105 263.1 372.865C262.582 373.634 261.688 374.225 260.419 374.637C259.119 375.059 258.049 375.106 257.208 374.778C256.336 374.459 255.728 373.771 255.385 372.714C255.061 371.716 255.159 370.833 255.677 370.063C256.165 369.304 257.059 368.713 258.359 368.291ZM230.903 344.862C233.642 344.306 235.812 344.611 237.41 345.778C238.984 346.982 240.093 349.172 240.738 352.348L242.91 363.042L246.459 362.322L247.438 367.618L244.962 368.121C243.997 368.317 243.31 368.602 242.899 368.977C242.489 369.352 242.313 369.923 242.372 370.689L242.476 374.315L238.646 375.093L237.537 369.629L231.325 370.89L230.216 365.426L236.427 364.164L234.35 353.937C234.122 352.816 233.693 352.06 233.063 351.669C232.433 351.279 231.572 351.194 230.483 351.415C229.891 351.535 229.343 351.711 228.839 351.943C228.304 352.182 227.863 352.482 227.515 352.845L226.244 346.586C227.146 346.079 227.992 345.696 228.783 345.439C229.573 345.181 230.28 344.989 230.903 344.862ZM221.514 346.806L221.974 362.526L222.511 380.865L215.604 381.068L215.375 373.255C215.357 372.62 215.369 371.952 215.412 371.252C215.423 370.552 215.482 369.835 215.588 369.101C215.662 368.4 215.753 367.682 215.858 366.948C215.932 366.215 216.022 365.481 216.127 364.747L215.08 364.778C214.682 366.41 214.168 367.824 213.535 369.018C212.871 370.214 212.008 371.145 210.947 371.812C209.887 372.51 208.531 372.884 206.88 372.932C203.958 373.018 201.737 372.05 200.215 370.028C198.695 368.039 197.873 364.932 197.749 360.708L197.363 347.513L204.27 347.311L204.626 359.458C204.704 362.126 205.158 364.083 205.99 365.33C206.79 366.61 207.968 367.227 209.524 367.181C210.794 367.144 211.831 366.732 212.635 365.946C213.438 365.159 214.027 364.109 214.402 362.795C214.777 361.513 214.974 360.077 214.991 358.487L214.654 347.007L221.514 346.806ZM172.898 343.402L174.678 376.478L167.458 374.517L167.005 347.826L166.407 347.663L152.465 370.444L145.337 368.508L163.654 340.891L172.898 343.402ZM150.008 336.665L139.692 359.459L133.44 356.63L143.756 333.836L150.008 336.665ZM134.971 361.455C136.186 362.005 137.016 362.677 137.459 363.47C137.86 364.279 137.837 365.176 137.392 366.16C136.934 367.173 136.268 367.796 135.395 368.029C134.494 368.248 133.435 368.083 132.22 367.533C130.975 366.97 130.152 366.284 129.751 365.474C129.321 364.652 129.336 363.734 129.794 362.721C130.226 361.766 130.893 361.179 131.795 360.959C132.667 360.726 133.726 360.891 134.971 361.455ZM138.201 330.798L129.929 343.495L124.544 351.761L119.832 348.691L123.956 342.448L123.158 341.928C121.823 343.22 120.507 344.163 119.209 344.758C117.911 345.354 116.618 345.592 115.33 345.474C114.016 345.338 112.693 344.836 111.362 343.969C108.94 342.391 107.658 340.342 107.517 337.824C107.349 335.287 108.453 332.196 110.829 328.549L117.957 317.609L123.747 321.381L117.035 331.682C115.578 333.918 114.853 335.759 114.86 337.204C114.822 338.658 115.429 339.793 116.68 340.608C117.745 341.302 118.853 341.55 120.006 341.353C121.158 341.156 122.276 340.633 123.36 339.784C124.399 338.945 125.366 337.869 126.26 336.555L132.451 327.052L138.201 330.798ZM105.658 305.337C107.199 306.851 108.325 308.403 109.035 309.991C109.745 311.58 110.085 313.161 110.054 314.734C110.023 316.307 109.654 317.838 108.948 319.327C108.22 320.838 107.199 322.263 105.885 323.6C104.504 325.005 103.054 326.096 101.533 326.873C99.9669 327.65 98.3757 328.091 96.7591 328.195C95.1424 328.299 93.5338 328.032 91.9331 327.395C90.3325 326.757 88.807 325.726 87.3567 324.301C85.9065 322.875 84.8826 321.402 84.2852 319.879C83.6651 318.334 83.4496 316.809 83.6387 315.302C83.7828 313.795 84.298 312.342 85.1844 310.941L91.1415 313.922C90.5192 314.691 90.1217 315.481 89.949 316.291C89.7314 317.102 89.7608 317.888 90.037 318.65C90.2683 319.411 90.7012 320.104 91.3357 320.728C91.9929 321.373 92.693 321.794 93.4361 321.99C94.1569 322.208 94.9322 322.235 95.762 322.071C96.5469 321.906 97.3751 321.562 98.2467 321.038C99.0734 320.514 99.9098 319.821 100.756 318.96C101.958 317.737 102.824 316.538 103.353 315.366C103.837 314.193 103.985 313.068 103.795 311.992C103.561 310.915 102.968 309.91 102.017 308.974C101.11 308.084 100.218 307.541 99.3403 307.347C98.4402 307.175 97.5983 307.238 96.8146 307.537C95.9859 307.836 95.2481 308.247 94.6012 308.77L91.2536 303.609C92.2354 302.837 93.2974 302.255 94.4398 301.863C95.5595 301.449 96.7376 301.292 97.9741 301.394C99.2106 301.495 100.483 301.855 101.791 302.472C103.055 303.09 104.344 304.045 105.658 305.337ZM94.5573 294.747L74.6982 309.965L70.5242 304.518L90.3833 289.3L94.5573 294.747ZM69.5939 309.493C70.4055 310.552 70.8192 311.536 70.835 312.445C70.8062 313.347 70.3631 314.127 69.5057 314.784C68.623 315.461 67.7422 315.695 66.8631 315.488C65.9648 315.256 65.1098 314.61 64.2981 313.551C63.4672 312.467 63.0661 311.473 63.0949 310.571C63.1044 309.643 63.5504 308.841 64.4331 308.164C65.2653 307.527 66.1305 307.324 67.0289 307.556C67.908 307.763 68.763 308.409 69.5939 309.493ZM82.506 275.807C83.9487 278.202 84.3884 280.348 83.8251 282.245C83.2183 284.132 81.5269 285.911 78.7511 287.583L69.4032 293.215L71.2721 296.317L66.6102 299.014L65.3069 296.851C64.7986 296.007 64.2991 295.455 63.8083 295.194C63.3174 294.934 62.7209 294.959 62.0185 295.271L58.6373 296.585L56.6208 293.237L61.3968 290.36L58.1261 284.931L62.9022 282.054L66.1728 287.483L75.1126 282.097C76.0923 281.507 76.6605 280.85 76.8172 280.125C76.9739 279.4 76.7653 278.561 76.1915 277.609C75.88 277.091 75.5305 276.634 75.143 276.237C74.739 275.813 74.308 275.498 73.85 275.292L79.3199 271.996C80.1003 272.676 80.7444 273.345 81.2523 274.003C81.7602 274.662 82.1781 275.263 82.506 275.807ZM74.1004 256.971C75.0159 259.308 75.3628 261.543 75.1411 263.678C74.8898 265.823 74.0589 267.752 72.6485 269.465C71.2084 271.189 69.1276 272.585 66.4061 273.651C63.6846 274.717 61.2246 275.101 59.0262 274.802C56.8161 274.473 54.9197 273.595 53.3369 272.168C51.713 270.723 50.4548 268.862 49.5625 266.584C48.647 264.247 48.3001 262.011 48.5218 259.877C48.7319 257.713 49.557 255.769 50.997 254.045C52.3959 252.303 54.4561 250.899 57.1776 249.833C59.9287 248.755 62.4298 248.389 64.6811 248.736C66.8912 249.064 68.7934 249.957 70.3877 251.413C71.9705 252.841 73.208 254.693 74.1004 256.971ZM69.2656 258.609C68.8137 257.455 68.1708 256.598 67.337 256.038C66.4917 255.448 65.4612 255.169 64.2456 255.202C62.9888 255.216 61.5913 255.525 60.0531 256.127C58.4261 256.765 57.1375 257.526 56.1872 258.41C55.1958 259.276 54.5665 260.239 54.2994 261.299C54.0026 262.371 54.1034 263.542 54.6017 264.814C55.0305 265.909 55.6676 266.751 56.5129 267.341C57.3287 267.943 58.365 268.236 59.6217 268.222C60.8489 268.219 62.2464 267.91 63.8142 267.296C66.3287 266.311 68.0397 265.061 68.9472 263.545C69.8548 262.029 69.9609 260.384 69.2656 258.609ZM67.5685 240.629L55.7023 243.019L43.0419 245.569L41.922 240.01L50.275 238.279L50.0962 237.391C47.9593 237.562 46.1772 237.484 44.7499 237.155C43.3164 236.796 42.1784 236.134 41.3359 235.169C40.4934 234.205 39.9091 232.913 39.5828 231.293C39.5264 231.013 39.4824 230.714 39.4508 230.396C39.3818 230.053 39.3501 229.655 39.3557 229.2L46.5599 228.04C46.436 228.551 46.3838 229.097 46.4032 229.676C46.4227 230.256 46.4764 230.763 46.5642 231.199C46.8089 232.414 47.2994 233.401 48.0356 234.16C48.7719 234.919 49.726 235.472 50.8978 235.82C52.0323 236.142 53.3658 236.246 54.8984 236.132L66.204 233.855L67.5685 240.629ZM64.3713 208.824C64.4322 210.888 64.2008 212.738 63.677 214.375C63.1523 215.979 62.3664 217.353 61.3195 218.497C60.2726 219.64 58.9642 220.537 57.3942 221.187C55.8232 221.806 54.0374 222.145 52.0367 222.204C50.0678 222.262 48.2497 222.045 46.5824 221.554C44.8824 221.032 43.4131 220.249 42.1745 219.205C40.9041 218.162 39.9125 216.872 39.1997 215.336C38.4868 213.799 38.1013 212.047 38.0432 210.078C37.9869 208.173 38.2543 206.464 38.8454 204.953C39.4047 203.442 40.2891 202.177 41.4985 201.156C42.707 200.103 44.2097 199.328 46.0067 198.829C47.7711 198.301 49.8142 198.065 52.1362 198.124L52.9062 217.744L49.1431 217.855L48.5374 202.187L50.5145 204.561C48.8249 204.388 47.4467 204.54 46.3801 205.016C45.3135 205.493 44.5389 206.167 44.0561 207.04C43.5723 207.88 43.3455 208.809 43.3755 209.825C43.4111 211.032 43.7601 212.086 44.4224 212.989C45.0848 213.891 46.0427 214.578 47.2962 215.049C48.518 215.522 49.9863 215.732 51.7011 215.682C54.4004 215.602 56.3679 214.956 57.6034 213.744C58.8381 212.499 59.4268 210.909 59.3696 208.971C59.3433 208.082 59.2102 207.339 58.97 206.742C58.6972 206.115 58.3647 205.616 57.9723 205.246C57.5791 204.845 57.141 204.54 56.658 204.331C56.1742 204.092 55.6918 203.899 55.2107 203.754L56.321 197.762C57.5045 198.013 58.581 198.411 59.5506 198.954C60.4874 199.467 61.3188 200.173 62.0446 201.073C62.7387 201.975 63.2797 203.071 63.6674 204.363C64.086 205.622 64.3206 207.109 64.3713 208.824ZM69.2621 169.862C68.5909 172.346 67.4185 174.432 65.7451 176.119C64.0492 177.767 61.909 178.867 59.3245 179.419C56.7176 179.933 53.6812 179.721 50.2154 178.785C47.6698 178.097 45.5025 177.166 43.7136 175.991C41.9023 174.778 40.4765 173.356 39.4361 171.725C38.3733 170.056 37.7266 168.187 37.496 166.117C37.2654 164.047 37.4816 161.785 38.1445 159.332C38.6418 157.491 39.3081 155.878 40.1436 154.491C40.979 153.104 41.9446 151.966 43.0404 151.078C44.1362 150.189 45.3343 149.591 46.6349 149.284C47.9131 148.939 49.2659 148.926 50.6933 149.246L50.935 156.025C49.6302 155.738 48.4809 155.789 47.4871 156.179C46.5015 156.538 45.6768 157.154 45.0129 158.028C44.3266 158.863 43.8219 159.878 43.4987 161.074C43.0512 162.731 43.0492 164.26 43.4928 165.664C43.914 167.028 44.8238 168.228 46.2223 169.264C47.59 170.292 49.4548 171.125 51.8164 171.763C53.626 172.252 55.2358 172.506 56.6457 172.525C58.0334 172.505 59.2519 172.258 60.3012 171.785C61.3506 171.312 62.2226 170.642 62.9172 169.777C63.5811 168.903 64.0871 167.822 64.4351 166.534C64.7997 165.184 64.9 163.961 64.7357 162.863C64.5492 161.727 64.0745 160.743 63.3119 159.912C62.5268 159.041 61.4218 158.381 59.9969 157.93L58.4431 163.681L53.6584 162.388L56.9774 150.104L62.5441 151.608L72.7574 154.368L71.5144 158.969L63.7642 156.776L63.5405 157.604C65.2481 158.592 66.6188 159.67 67.6526 160.838C68.6557 161.997 69.3011 163.324 69.5888 164.816C69.8848 166.279 69.7759 167.96 69.2621 169.862ZM74.7927 149.159L63.9345 143.809L52.3495 138.101L54.8559 133.014L62.529 136.741L62.9292 135.929C61.132 134.76 59.7684 133.611 58.8382 132.479C57.9221 131.32 57.4247 130.101 57.3462 128.822C57.2676 127.544 57.5934 126.164 58.3236 124.682C58.4499 124.425 58.5976 124.162 58.7665 123.891C58.9209 123.577 59.1392 123.242 59.4213 122.885L65.8355 126.364C65.4254 126.693 65.0512 127.093 64.713 127.564C64.3747 128.035 64.1073 128.47 63.9107 128.869C63.3631 129.98 63.1493 131.062 63.2691 132.112C63.3889 133.163 63.807 134.184 64.5232 135.174C65.225 136.122 66.2177 137.018 67.5014 137.863L77.8467 142.96L74.7927 149.159ZM91.5798 122.248C90.0975 124.274 88.396 125.765 86.4755 126.721C84.5293 127.659 82.4552 127.992 80.2534 127.719C78.0259 127.427 75.7328 126.418 73.3741 124.692C71.0154 122.966 69.373 121.094 68.4471 119.078C67.5399 117.036 67.2646 114.965 67.6213 112.864C67.9711 110.718 68.8683 108.658 70.3131 106.684C71.7954 104.659 73.4968 103.168 75.4174 102.211C77.3568 101.229 79.4402 100.884 81.6677 101.175C83.8883 101.422 86.178 102.409 88.5367 104.135C90.921 105.88 92.5702 107.796 93.4843 109.882C94.3915 111.924 94.6573 114.008 94.2819 116.135C93.9253 118.236 93.0245 120.274 91.5798 122.248ZM87.6056 119.044C88.3374 118.045 88.7164 117.042 88.7428 116.038C88.7879 115.008 88.471 113.989 87.7919 112.98C87.106 111.927 86.0965 110.912 84.7633 109.937C83.3532 108.905 82.0203 108.225 80.7646 107.896C79.5021 107.523 78.3517 107.508 77.3136 107.851C76.2498 108.175 75.3145 108.888 74.5077 109.99C73.8135 110.939 73.4438 111.928 73.3987 112.958C73.3279 113.969 73.6355 115.001 74.3214 116.055C74.9817 117.089 75.9912 118.103 77.35 119.098C79.5292 120.693 81.5019 121.467 83.2679 121.421C85.0339 121.375 86.4798 120.583 87.6056 119.044ZM108.688 102.859C106.517 104.816 104.218 105.564 101.79 105.101C99.3641 104.594 96.7894 102.83 94.0657 99.8104L84.9372 89.6894L90.0331 85.0932L98.5871 94.5773C100.226 96.3938 101.72 97.5057 103.072 97.9128C104.402 98.2963 105.621 97.988 106.73 96.9879C107.39 96.3921 107.819 95.7056 108.017 94.9285C108.214 94.1513 108.224 93.3083 108.046 92.3993C107.868 91.4903 107.5 90.5603 106.941 89.6092C106.407 88.6369 105.736 87.68 104.93 86.7386L97.4292 78.4224L102.525 73.8262L112.452 84.8319L119.282 92.405L115.177 96.1075L109.907 90.3357L109.27 90.9103C110.235 92.6921 110.872 94.2996 111.181 95.7327C111.492 97.1209 111.436 98.4116 111.015 99.6046C110.596 100.753 109.82 101.837 108.688 102.859ZM128.328 95.667L118.108 78.1253L111.703 67.1309L116.604 64.2762L120.147 70.2642L120.912 69.8735C120.312 68.2747 120.026 66.8052 120.054 65.4651C120.109 64.109 120.487 62.896 121.188 61.8261C121.888 60.7563 122.884 59.8455 124.174 59.0939C126.095 57.9744 128.022 57.4952 129.955 57.6564C131.871 57.7901 133.69 58.5138 135.411 59.8275C137.144 61.0977 138.69 62.8995 140.049 65.2329C141.313 67.4015 142.111 69.5288 142.444 71.6146C142.76 73.673 142.548 75.5802 141.806 77.3361C141.091 79.076 139.759 80.5137 137.81 81.6492C136.438 82.4488 135.119 82.8677 133.854 82.9059C132.617 82.928 131.411 82.6564 130.236 82.0908C129.072 81.4819 127.901 80.6385 126.721 79.5607L125.939 80.0165C126.535 80.6617 127.126 81.3287 127.711 82.0174C128.296 82.706 128.846 83.397 129.36 84.0902C129.858 84.756 130.307 85.432 130.707 86.1183L134.257 92.2126L128.328 95.667ZM132.993 78.1132C133.981 77.5375 134.658 76.7752 135.025 75.8263C135.391 74.8775 135.465 73.805 135.246 72.6088C135.055 71.3966 134.591 70.1592 133.855 68.8964C133.056 67.5238 132.184 66.469 131.24 65.7321C130.28 64.9678 129.283 64.519 128.249 64.3857C127.216 64.2525 126.205 64.4738 125.217 65.0495C124.338 65.5613 123.695 66.1932 123.288 66.9454C122.88 67.6975 122.641 68.5173 122.569 69.4045C122.525 70.2758 122.623 71.138 122.863 71.9912C123.087 72.8169 123.39 73.5591 123.774 74.218L124.23 75.0004C124.534 75.5219 124.922 76.031 125.395 76.5275C125.853 76.9966 126.392 77.4177 127.014 77.7908C127.62 78.1365 128.256 78.409 128.924 78.6083C129.576 78.7802 130.256 78.8435 130.965 78.7981C131.658 78.7253 132.334 78.497 132.993 78.1132ZM148.152 64.3371C147.499 63.0203 147.157 61.8598 147.126 60.8557C147.095 59.8515 147.238 58.9525 147.556 58.1587C147.873 57.3649 148.268 56.6442 148.74 55.9964C149.232 55.3079 149.684 54.6507 150.097 54.0248C150.54 53.388 150.842 52.7355 151.002 52.0672C151.181 51.3581 151.117 50.5861 150.81 49.7512C150.393 48.6181 149.728 47.9148 148.815 47.6414C147.932 47.3569 146.924 47.4231 145.791 47.8398C145.105 48.0921 144.408 48.4502 143.698 48.9143C143.019 49.3674 142.366 49.895 141.742 50.4972C141.117 51.0994 140.529 51.7557 139.978 52.4662L137.596 47.0965C138.226 46.3233 138.918 45.6286 139.673 45.0124C140.428 44.3961 141.226 43.849 142.065 43.3709C142.894 42.8629 143.726 42.4554 144.561 42.1483C145.813 41.6877 147.066 41.4129 148.32 41.3242C149.573 41.2354 150.744 41.3803 151.831 41.759C152.937 42.097 153.924 42.6647 154.793 43.4622C155.662 44.2597 156.349 45.3443 156.853 46.7159C157.314 47.9682 157.489 49.0886 157.379 50.077C157.268 51.0655 156.995 51.9785 156.558 52.8161C156.151 53.6428 155.678 54.4263 155.138 55.1666C154.598 55.9069 154.108 56.6456 153.668 57.3829C153.228 58.1201 152.941 58.9029 152.805 59.7313C152.7 60.5487 152.863 61.4533 153.296 62.4452L148.152 64.3371ZM154.717 73.3475C153.315 73.863 152.147 73.9542 151.212 73.6211C150.307 73.277 149.624 72.4788 149.163 71.2265C148.692 69.9443 148.689 68.8789 149.155 68.0303C149.652 67.1708 150.601 66.4832 152.002 65.9677C153.433 65.4413 154.601 65.3501 155.507 65.6942C156.442 66.0273 157.145 66.835 157.616 68.1171C158.516 70.5621 157.549 72.3056 154.717 73.3475ZM191.368 71.473L188.211 32.5231L194.101 32.0456L197.258 70.9955L191.368 71.473Z" fill="#B97D00"/>
<circle opacity="0.9" cx="206" cy="205" r="122" fill="url(#paint1_linear_8_32)"/>
<defs>
<linearGradient id="paint0_linear_8_32" x1="205.5" y1="0" x2="205.5" y2="411" gradientUnits="userSpaceOnUse">
<stop stop-color="#FDCF70"/>
<stop offset="1" stop-color="#FFDC94"/>
</linearGradient>
<linearGradient id="paint1_linear_8_32" x1="132" y1="95" x2="275" y2="315.5" gradientUnits="userSpaceOnUse">
<stop stop-color="#B97D00"/>
<stop offset="1" stop-color="#F8B21F"/>
</linearGradient>
</defs>
</svg>
